<?xml version="1.0" encoding="UTF-8"?>
<svg width="507px" height="489px" viewBox="0 0 507 489" version="1.1" xmlns="http://www.w3.org/2000/svg" xmlns:xlink="http://www.w3.org/1999/xlink">
    <!-- Generator: Sketch 48.2 (47327) - http://www.bohemiancoding.com/sketch -->
    <title>Untitled</title>
    <desc>Created with Sketch.</desc>
    <defs></defs>
    <g id="Page-1" stroke="none" stroke-width="1" fill="none" fill-rule="evenodd" fill-opacity="0.88">
        <g id="if_jquery_282807" fill="#1D1C1C" fill-rule="nonzero">
            <path d="M32.317,115.054 C-12.56,179.55 -6.969,263.463 27.307,331.999 C28.123,333.643 28.977,335.258 29.82,336.879 C30.357,337.899 30.864,338.951 31.423,339.959 C31.737,340.566 32.092,341.158 32.421,341.738 C33.007,342.833 33.603,343.869 34.211,344.937 C35.276,346.813 36.369,348.678 37.483,350.543 C38.101,351.568 38.711,352.593 39.348,353.617 C40.584,355.613 41.85,357.593 43.147,359.56 C43.687,360.401 44.212,361.242 44.766,362.054 C46.553,364.722 48.38,367.385 50.264,369.998 C50.72,370.622 51.051,371.034 51.352,371.452 C52.981,373.702 54.665,375.92 56.362,378.121 C56.988,378.919 57.623,379.721 58.252,380.523 C59.768,382.432 61.313,384.325 62.883,386.216 C63.471,386.921 64.06,387.631 64.654,388.325 C66.76,390.804 68.91,393.276 71.11,395.7 C73.632,398.445 75.825,400.739 78.049,403.027 C78.737,403.731 79.443,404.442 80.15,405.147 C81.872,406.876 83.621,408.574 85.388,410.282 C86.106,410.96 86.817,411.659 87.53,412.315 C89.891,414.539 92.275,416.718 94.707,418.844 C95.233,419.305 95.661,419.658 96.068,419.999 C98.213,421.858 100.393,423.702 102.589,425.514 C103.484,426.235 104.389,426.951 105.29,427.666 C107.085,429.104 108.898,430.519 110.726,431.912 C111.691,432.649 112.659,433.387 113.632,434.125 C115.647,435.6 117.677,437.068 119.73,438.495 C120.479,439.037 121.202,439.557 121.954,440.073 C124.508,441.845 126.495,443.142 128.482,444.427 C129.336,444.995 130.185,445.581 131.047,446.134 C134.097,448.06 137.191,449.968 140.319,451.818 C141.171,452.3 142.027,452.778 142.881,453.26 C145.18,454.588 147.493,455.89 149.841,457.164 C151.107,457.847 152.411,458.492 153.688,459.143 C155.347,460.016 156.99,460.894 158.671,461.729 C160.498,462.613 161.181,462.934 161.862,463.275 C164.47,464.522 167.1,465.742 169.752,466.929 C170.319,467.178 170.864,467.428 171.425,467.672 C174.465,469 177.531,470.285 180.633,471.506 C181.376,471.804 182.127,472.091 182.876,472.39 C185.742,473.491 188.646,474.58 191.56,475.606 C195.854,477.102 199.086,478.137 202.342,479.152 C203.117,479.38 203.898,479.63 204.679,479.857 C207.992,480.854 211.262,482.042 214.684,482.676 C431.705,522.25 494.745,352.258 494.745,352.258 C441.803,421.234 347.821,439.432 258.778,419.172 C255.402,418.413 252.132,417.361 248.84,416.385 C248.003,416.136 247.184,415.887 246.36,415.632 C243.147,414.645 239.961,413.61 236.792,412.52 C232.639,411.05 229.835,409.998 227.039,408.918 C226.25,408.604 225.461,408.306 224.675,407.991 C221.612,406.782 218.567,405.518 215.565,404.201 C214.944,403.94 214.353,403.664 213.746,403.392 C211.163,402.226 208.608,401.05 206.057,399.824 C205.325,399.467 204.587,399.12 203.839,398.757 C201.843,397.786 199.864,396.75 197.896,395.736 C196.576,395.042 195.234,394.381 193.93,393.659 C191.522,392.369 189.158,391.029 186.807,389.663 C186.007,389.213 185.202,388.784 184.399,388.323 C181.27,386.48 178.179,384.571 175.121,382.635 C174.278,382.099 173.451,381.524 172.619,380.971 C170.401,379.539 168.191,378.086 166.019,376.578 C165.298,376.101 164.599,375.57 163.891,375.087 C161.789,373.607 159.713,372.1 157.649,370.576 C156.716,369.887 155.792,369.171 154.884,368.482 C152.994,367.035 151.113,365.582 149.253,364.079 C148.415,363.412 147.572,362.74 146.742,362.067 C144.375,360.121 142.038,358.169 139.728,356.162 C136.466,353.321 134.01,351.07 131.589,348.809 C130.884,348.137 130.201,347.486 129.512,346.808 C127.715,345.106 125.95,343.381 124.215,341.619 C123.521,340.925 122.821,340.236 122.138,339.548 C119.929,337.281 117.762,334.993 115.637,332.667 C113.069,329.868 110.873,327.358 108.723,324.82 C108.14,324.126 107.574,323.454 106.996,322.77 C105.394,320.839 103.805,318.881 102.254,316.903 C101.668,316.198 101.086,315.465 100.51,314.739 C98.645,312.315 96.818,309.903 95.028,307.44 C45.589,240.017 27.828,147.009 67.339,70.627" id="Shape"></path>
            <path d="M171.617,60.714 C139.163,107.419 140.926,169.929 166.241,219.324 C170.487,227.604 175.259,235.635 180.597,243.286 C185.458,250.254 190.846,258.545 197.298,264.14 C199.641,266.716 202.084,269.232 204.581,271.7 C205.213,272.351 205.858,272.964 206.503,273.603 C208.924,275.946 211.391,278.261 213.94,280.506 C214.045,280.593 214.138,280.695 214.244,280.766 C214.271,280.798 214.298,280.81 214.314,280.842 C217.134,283.31 220.045,285.69 223.003,288.027 C223.659,288.526 224.31,289.052 224.974,289.567 C227.937,291.839 230.961,294.079 234.062,296.205 C234.154,296.269 234.233,296.335 234.325,296.411 C235.692,297.349 237.088,298.232 238.471,299.139 C239.138,299.573 239.77,300.034 240.44,300.44 C242.652,301.856 244.895,303.239 247.175,304.567 C247.497,304.768 247.815,304.93 248.127,305.115 C250.092,306.248 252.085,307.365 254.084,308.444 C254.781,308.84 255.491,309.181 256.202,309.55 C257.582,310.272 258.962,311.003 260.369,311.708 C260.572,311.806 260.792,311.903 260.995,311.99 C263.855,313.399 266.743,314.756 269.687,316.035 C270.314,316.311 270.964,316.56 271.607,316.826 C273.958,317.824 276.338,318.801 278.724,319.717 C279.738,320.102 280.763,320.465 281.777,320.84 C283.943,321.643 286.124,322.379 288.317,323.117 C289.309,323.431 290.282,323.757 291.275,324.06 C294.395,325.025 297.478,326.25 300.731,326.792 C468.291,354.556 506.978,225.542 506.978,225.542 C472.103,275.754 404.573,299.728 332.51,281.02 C329.311,280.18 326.157,279.263 323.024,278.276 C322.064,277.984 321.121,277.669 320.171,277.354 C317.942,276.633 315.727,275.864 313.531,275.067 C312.525,274.703 311.521,274.335 310.535,273.955 C308.127,273.028 305.749,272.073 303.39,271.07 C302.747,270.794 302.094,270.549 301.465,270.257 C298.507,268.972 295.595,267.611 292.721,266.201 C291.243,265.473 289.793,264.71 288.34,263.967 C287.499,263.528 286.653,263.094 285.81,262.66 C283.942,261.645 282.09,260.599 280.26,259.531 C279.829,259.282 279.376,259.049 278.937,258.782 C276.666,257.454 274.431,256.088 272.218,254.683 C271.535,254.244 270.879,253.772 270.196,253.327 C268.735,252.379 267.276,251.419 265.844,250.448 C262.756,248.323 259.749,246.089 256.788,243.822 C256.105,243.285 255.419,242.759 254.749,242.222 C223.203,217.316 198.206,183.279 186.319,144.692 C173.861,104.663 176.543,59.742 198.127,23.281" id="Shape"></path>
            <path d="M288.774,20.116 C269.643,48.27 267.764,83.235 281.039,114.333 C295.037,147.34 323.723,173.233 357.207,185.504 C358.587,186.019 359.964,186.48 361.366,186.952 C361.975,187.142 362.58,187.348 363.198,187.527 C365.17,188.15 367.13,188.872 369.169,189.256 C461.689,207.134 486.784,141.776 493.465,132.156 C471.479,163.807 434.54,171.405 389.211,160.408 C385.629,159.529 381.692,158.239 378.243,157.013 C373.818,155.44 369.459,153.64 365.219,151.607 C357.172,147.74 349.501,143.045 342.384,137.676 C301.826,106.898 276.625,48.188 303.093,0.371" id="Shape"></path>
        </g>
    </g>
</svg>