<?xml version="1.0" encoding="UTF-8"?>
<svg width="98px" height="95px" viewBox="0 0 98 95" version="1.1" xmlns="http://www.w3.org/2000/svg" xmlns:xlink="http://www.w3.org/1999/xlink">
    <!-- Generator: Sketch 48.2 (47327) - http://www.bohemiancoding.com/sketch -->
    <title>Untitled</title>
    <desc>Created with Sketch.</desc>
    <defs></defs>
    <g id="Untitled" stroke="none" stroke-width="1" fill="none" fill-rule="evenodd">
        <g id="if_jquery_282807" fill="#FBE6CF" fill-rule="nonzero">
            <path d="M6.24663135,22.2390669 C-2.42775288,34.7056552 -1.34705492,50.9254026 5.2782363,64.1728924 C5.43596292,64.4906651 5.60103465,64.8028324 5.76398016,65.1161594 C5.8677782,65.3133177 5.96577746,65.5166613 6.07382792,65.7115001 C6.13452175,65.8288286 6.20314056,65.9432577 6.26673377,66.0553673 C6.38000313,66.2670225 6.49520541,66.4672735 6.61272721,66.6737098 C6.81858364,67.0363264 7.02985227,67.3968167 7.24518003,67.7573071 C7.36463475,67.9554319 7.48254313,68.1535566 7.6056704,68.351488 C7.84457984,68.7372997 8.08928806,69.1200187 8.33998833,69.5002249 C8.44436624,69.6627839 8.54584477,69.8253428 8.65292877,69.9822962 C8.99834234,70.4980004 9.3514876,71.0127382 9.71565053,71.5178113 C9.72512186,71.5303753 9.73555965,71.5440991 9.74619074,71.5566631 C9.80379188,71.6384258 9.86777167,71.7180622 9.92595269,71.7988585 C10.2408261,72.2337664 10.5663305,72.662489 10.8943478,73.0879257 C11.0153488,73.242173 11.1380895,73.3971935 11.2596704,73.5522141 C11.5527018,73.9212093 11.8513386,74.2871119 12.1548077,74.6526279 C12.2684636,74.788899 12.3823129,74.9261366 12.4971286,75.0602816 C12.9042024,75.5394535 13.3197811,76.0172724 13.7450245,76.4858132 C13.7523696,76.4943181 13.7622275,76.5037894 13.7701525,76.512101 C13.7873555,76.5320101 13.8026256,76.5445741 13.8178957,76.5635168 C14.232508,77.0164009 14.6563983,77.4598138 15.0862806,77.9020668 C15.2192658,78.0381447 15.3557303,78.1755756 15.492388,78.3118468 C15.8252376,78.6460494 16.163306,78.9742599 16.5048537,79.3044034 C16.6436377,79.4354557 16.7810686,79.5705671 16.9188861,79.6973669 C17.3752495,80.1272493 17.8360587,80.5484335 18.3061459,80.9593732 C18.3144574,80.9676847 18.3202562,80.9740634 18.3281812,80.9771561 C18.4078177,81.048481 18.4905468,81.1167132 18.5692168,81.1826259 C18.9838291,81.5419565 19.4052066,81.8983878 19.8296768,82.2486336 C20.0026735,82.3879975 20.1776031,82.5263949 20.3517596,82.6645989 C20.6987195,82.9425535 21.0491587,83.2160622 21.4024972,83.4853186 C21.5890244,83.6277751 21.7761315,83.7704249 21.964205,83.9130747 C22.3536893,84.1981811 22.7460729,84.4819343 23.1429022,84.7577626 C23.2876783,84.8625271 23.4274287,84.9630392 23.5727846,85.0627781 C23.6126028,85.0909988 23.6493284,85.1203792 23.6901131,85.1474402 C24.0664535,85.4052923 24.4505255,85.6559925 24.8345976,85.9043733 C24.9996693,86.0141634 25.1637746,86.1274328 25.3303926,86.2343235 C25.9199345,86.6066047 26.5179813,86.9754066 27.1226,87.3329976 C27.2872852,87.4261646 27.4527435,87.5185584 27.6178152,87.6117253 C28.0621945,87.8684177 28.5092799,88.1200844 28.9631305,88.3663389 C29.2078387,88.4983577 29.459892,88.6230313 29.7067265,88.7488647 C30.0273986,88.9176089 30.3449781,89.0873197 30.6699026,89.2487189 C30.7437403,89.2864109 30.8202841,89.32217 30.8931554,89.3567693 C31.0230479,89.4195894 31.1550666,89.4816362 31.2866988,89.547549 C31.7908054,89.7885846 32.2991645,90.0244014 32.811776,90.2538395 C32.9213728,90.3019693 33.0267172,90.3502924 33.1351542,90.3974558 C33.7227632,90.6541481 34.3153978,90.9025289 34.9149909,91.1385389 C35.0586072,91.1961401 35.2037698,91.251615 35.3485458,91.3094094 C35.9025219,91.5222244 36.4638431,91.7327199 37.0270973,91.9310379 C37.0988087,91.9561659 37.1676208,91.9791677 37.2381726,92.003136 C37.8570949,92.2202034 38.4818161,92.420261 39.1111762,92.6164528 C39.2609778,92.6605235 39.4119392,92.7088466 39.5629006,92.752724 C40.2032784,92.9454365 40.8353446,93.1750679 41.4967913,93.2976153 C83.4453071,100.94697 95.6304616,68.0888036 95.6304616,68.0888036 C85.397174,81.4213421 67.2311651,84.9388776 50.0198276,81.0227731 C49.3672724,80.8760641 48.7352061,80.6727205 48.0988875,80.4840671 C47.9371017,80.4359373 47.7787952,80.3878075 47.6195222,80.3385179 C46.9984737,80.1477383 46.382644,79.9476806 45.7701003,79.7369919 C45.6862114,79.7076114 45.601356,79.676298 45.5159208,79.6455645 C44.9673568,79.452852 44.4253649,79.2495084 43.8849193,79.0407525 C43.7324115,78.9800587 43.5799038,78.9224576 43.427976,78.8615705 C42.8359213,78.6278799 42.2473458,78.3835583 41.667082,78.1289922 C41.5470474,78.0785428 41.4328115,78.0251941 41.315483,77.9726186 C40.8162087,77.7472396 40.3223465,77.5199277 39.8292576,77.2829512 C39.6877675,77.2139458 39.5451177,77.1468733 39.400535,77.0767082 C39.0147233,76.8890212 38.6321976,76.6887703 38.2517981,76.4927718 C37.9966521,76.3586268 37.7372536,76.2308605 37.4852003,76.0913034 C37.0197521,75.8419562 36.5628088,75.5829443 36.1083783,75.3189069 C35.9537444,75.2319253 35.798144,75.1490028 35.6429302,75.059895 C35.0381182,74.7036571 34.4406513,74.3346618 33.8495631,73.9604477 C33.6866175,73.8568429 33.5267647,73.7456998 33.3659454,73.6388091 C32.9372228,73.3620143 32.5100465,73.0811604 32.0902154,72.7896755 C31.9508515,72.697475 31.8157401,72.5948367 31.6788891,72.5014764 C31.2725884,72.2154037 30.8713133,71.924112 30.4723578,71.6295343 C30.2920159,71.4963558 30.1134137,71.3579584 29.9379042,71.22478 C29.5725815,70.9450858 29.2089985,70.6642319 28.8494746,70.3737134 C28.6874955,70.2447874 28.52455,70.1148949 28.3641173,69.984809 C27.9065941,69.608662 27.4548697,69.2313552 27.0083642,68.8434173 C26.9617807,68.8014728 26.9109448,68.7616546 26.8601089,68.7187437 C26.3778443,68.2942735 25.9031181,67.8591722 25.4351571,67.4221381 C25.298886,67.2922455 25.1668672,67.1664122 25.0336888,67.0353599 C24.6863423,66.7063762 24.3451811,66.3729468 24.0098188,66.0323655 C23.8756738,65.8982206 23.7403691,65.7650421 23.6083504,65.6320569 C23.1813674,65.193863 22.7625027,64.7516099 22.3517563,64.3020117 C22.3312673,64.2799764 22.3098119,64.2600672 22.2899028,64.2359057 C21.8553814,63.7609862 21.4309112,63.2758222 21.0153325,62.785246 C20.902643,62.6511011 20.7932395,62.5212086 20.6815165,62.3889966 C20.371862,62.0157489 20.0647204,61.6372823 19.7649238,61.2549499 C19.6516544,61.1186787 19.5391582,60.9769954 19.4278218,60.8366651 C19.0673314,60.3681242 18.7141862,59.9019029 18.3681927,59.4258237 C8.81200844,46.3934684 5.37894165,28.4157264 13.0161187,13.6516642" id="Shape"></path>
            <path d="M33.1722664,11.7355564 C26.899154,20.7632792 27.2399285,32.8459888 32.1331263,42.3936682 C32.9538459,43.9941295 33.8762374,45.546461 34.9080324,47.0253413 C35.8476269,48.3722029 36.8890865,49.9747905 38.1362092,51.0562616 C38.5890934,51.5541829 39.0613068,52.0405066 39.5439579,52.5175523 C39.6661188,52.6433857 39.7907924,52.761874 39.915466,52.8853878 C40.383427,53.338272 40.8602794,53.7857439 41.3529818,54.2196854 C41.3732775,54.2365019 41.3912537,54.2562177 41.4117427,54.2699415 C41.4169616,54.2761268 41.4221805,54.2784463 41.4252731,54.2846317 C41.9703578,54.7616774 42.533032,55.2217134 43.104791,55.6734378 C43.2315909,55.7698907 43.3574242,55.8715625 43.4857704,55.9711081 C44.0584959,56.4102685 44.6430122,56.8432435 45.242412,57.2541832 C45.2601949,57.266554 45.275465,57.2793113 45.2932479,57.2940015 C45.5574786,57.4753098 45.8273149,57.645987 46.0946383,57.8213032 C46.2235643,57.9051921 46.3457251,57.9942999 46.4752311,58.0727767 C46.9027939,58.3464787 47.3363488,58.6138022 47.7770556,58.8704945 C47.8392957,58.9093463 47.9007627,58.9406597 47.96107,58.9764188 C48.3408896,59.1954191 48.7261214,59.4113267 49.1125129,59.6198893 C49.2472378,59.6964331 49.3844754,59.7623458 49.5219063,59.8336707 C49.7886498,59.9732278 50.0553934,60.1145246 50.3273558,60.2507957 C50.3665942,60.2697384 50.4091185,60.2884878 50.4483569,60.3053042 C51.0011732,60.5776532 51.5594018,60.839951 52.1284547,61.0871721 C52.249649,61.1405208 52.3752891,61.1886506 52.4995761,61.2400664 C52.9540066,61.4329722 53.4140426,61.6218189 53.8752383,61.7988748 C54.0712369,61.8732924 54.2693616,61.9434575 54.4653601,62.0159422 C54.8840315,62.171156 55.3056023,62.3134192 55.7294926,62.456069 C55.9212387,62.5167629 56.1093122,62.5797762 56.3012516,62.6383438 C56.904324,62.824871 57.5002445,63.0616542 58.1290248,63.1664187 C90.5171038,68.5329896 97.9950079,43.5955605 97.9950079,43.5955605 C91.2539345,53.3011598 78.2008969,57.9351525 64.2716648,54.3190377 C63.6533223,54.1566721 63.043678,53.9794229 62.4380928,53.7886433 C62.2525321,53.7322019 62.0702573,53.6713148 61.8866295,53.6104277 C61.4557807,53.4710639 61.027638,53.322422 60.6031678,53.1683679 C60.4087156,53.0980095 60.21465,53.0268779 60.0240637,52.9534267 C59.5586156,52.7742447 59.0989662,52.5896504 58.6429893,52.3957781 C58.5187023,52.3424294 58.3924823,52.2950727 58.2709014,52.2386314 C57.6991424,51.9902506 57.1362749,51.7271796 56.5807524,51.4546373 C56.2950662,51.3139204 56.0147922,51.1664383 55.7339383,51.022822 C55.5713794,50.9379666 55.407854,50.8540777 55.2449085,50.7701888 C54.8838382,50.573997 54.5258606,50.3718131 54.1721355,50.1653768 C54.0888265,50.117247 54.001265,50.0722098 53.9164096,50.0206008 C53.4774425,49.7639084 53.0454339,49.499871 52.6176778,49.2282951 C52.4856591,49.1434397 52.3588592,49.0522057 52.2268405,48.9661906 C51.9444403,48.7829494 51.6624266,48.5973886 51.3856319,48.4097017 C50.7887449,47.9989553 50.2075145,47.56714 49.6351757,47.1289461 C49.5031569,47.025148 49.3705583,46.9234762 49.2410524,46.8196782 C43.1434495,42.005537 38.3117187,35.4264427 36.0140516,27.9678678 C33.6060146,20.2305653 34.1244249,11.5476762 38.2964486,4.50004099" id="Shape"></path>
            <path d="M55.8178272,3.88827045 C52.1199498,9.33022544 51.7567533,16.0886951 54.3227103,22.099703 C57.0284177,28.4797061 62.5732042,33.4846269 69.0454079,35.8565183 C69.3121514,35.9560639 69.5783151,36.0451717 69.8493111,36.1364058 C69.9670261,36.1731313 70.0839681,36.2129496 70.2034228,36.2475489 C70.5845954,36.3679701 70.9634486,36.5075272 71.3575719,36.5817515 C89.2409872,40.0374335 94.0916606,27.4042271 95.3830473,25.5447539 C91.13332,31.6626525 83.9932911,33.1312884 75.2315387,31.0056516 C74.5391652,30.8357475 73.7781729,30.5864003 73.1115073,30.3494238 C72.2561884,30.0453748 71.4136267,29.6974484 70.5940668,29.3044849 C69.0386426,28.5570231 67.5558964,27.6495152 66.1802342,26.6117281 C58.34068,20.6625738 53.4695175,9.31437546 58.5855815,0.0717114903" id="Shape"></path>
        </g>
    </g>
</svg>